<svg viewBox="0 0 195 43" xmlns="http://www.w3.org/2000/svg" data-logo="logo">
        <g transform="translate(0, 1) rotate(0)" id="logogram" style="opacity: 1;"><path fill="#7F57F1" d="M20.0544 40.1999C31.1002 40.1999 40.0544 31.2456 40.0544 20.1999C40.0544 9.15428 31.1002 0.199982 20.0544 0.199982C9.00873 0.199982 0.0544434 9.15428 0.0544434 20.1999C0.0544434 31.2456 9.00873 40.1999 20.0544 40.1999ZM23.1414 15.6525C24.8462 13.9476 24.8462 11.1835 23.1414 9.47864C21.4365 7.77376 18.6724 7.77376 16.9675 9.47864C15.2627 11.1835 15.2627 13.9476 16.9675 15.6525L20.0544 18.7394L23.1414 15.6525ZM24.6019 23.2869C26.3068 24.9918 29.0709 24.9918 30.7758 23.2869C32.4806 21.582 32.4806 18.8179 30.7758 17.113C29.0709 15.4082 26.3068 15.4082 24.6019 17.113L21.515 20.2L24.6019 23.2869ZM23.1414 30.9213C24.8462 29.2164 24.8462 26.4523 23.1414 24.7474L20.0544 21.6605L16.9675 24.7474C15.2627 26.4523 15.2627 29.2164 16.9675 30.9213C18.6724 32.6262 21.4365 32.6262 23.1414 30.9213ZM9.33307 23.2869C7.62823 21.582 7.62823 18.8179 9.33307 17.113C11.038 15.4082 13.8021 15.4082 15.507 17.113L18.5939 20.2L15.507 23.2869C13.8021 24.9918 11.038 24.9918 9.33307 23.2869Z" clip-rule="evenodd" fill-rule="evenodd"></path></g>
        <g transform="translate(46, 8.5)" id="logotype" style="opacity: 1;"><path d="M16.64 26.38L16.64 26.38Q13.58 26.38 11.31 25.44Q9.05 24.50 7.79 22.65Q6.52 20.80 6.45 18.10L6.45 18.10L11.53 18.10Q11.63 19.39 12.30 20.25Q12.96 21.11 14.07 21.54Q15.19 21.97 16.59 21.97L16.59 21.97Q17.99 21.97 19.02 21.57Q20.06 21.16 20.64 20.43Q21.22 19.69 21.22 18.72L21.22 18.72Q21.22 17.85 20.70 17.26Q20.18 16.67 19.20 16.24Q18.23 15.81 16.83 15.49L16.83 15.49L14.02 14.79Q10.79 14.00 8.96 12.32Q7.14 10.64 7.14 7.87L7.14 7.87Q7.14 5.56 8.38 3.83Q9.61 2.11 11.78 1.15Q13.94 0.19 16.71 0.19L16.71 0.19Q19.53 0.19 21.63 1.16Q23.73 2.13 24.91 3.84Q26.09 5.56 26.12 7.80L26.12 7.80L21.08 7.80Q20.94 6.26 19.77 5.42Q18.60 4.59 16.66 4.59L16.66 4.59Q15.34 4.59 14.40 4.96Q13.46 5.34 12.96 6.00Q12.47 6.67 12.47 7.53L12.47 7.53Q12.47 8.47 13.04 9.09Q13.61 9.71 14.54 10.10Q15.48 10.48 16.55 10.74L16.55 10.74L18.86 11.30Q20.47 11.66 21.85 12.28Q23.23 12.89 24.28 13.79Q25.32 14.69 25.89 15.92Q26.46 17.15 26.46 18.75L26.46 18.75Q26.46 21.06 25.30 22.78Q24.14 24.50 21.94 25.44Q19.73 26.38 16.64 26.38ZM36.37 26.38L36.37 26.38Q33.49 26.38 31.39 25.14Q29.30 23.90 28.16 21.68Q27.03 19.47 27.03 16.53L27.03 16.53Q27.03 13.56 28.16 11.35Q29.30 9.13 31.39 7.89Q33.49 6.65 36.37 6.65L36.37 6.65Q38.07 6.65 39.50 7.10Q40.94 7.54 42.05 8.36Q43.16 9.18 43.88 10.36Q44.60 11.54 44.87 13.01L44.87 13.01L40.10 13.90Q39.95 13.15 39.62 12.56Q39.30 11.97 38.84 11.55Q38.37 11.13 37.77 10.91Q37.16 10.69 36.43 10.69L36.43 10.69Q35.06 10.69 34.13 11.42Q33.20 12.16 32.73 13.47Q32.26 14.79 32.26 16.52L32.26 16.52Q32.26 18.22 32.73 19.53Q33.20 20.84 34.13 21.59Q35.06 22.34 36.43 22.34L36.43 22.34Q37.16 22.34 37.78 22.11Q38.39 21.88 38.87 21.45Q39.35 21.01 39.67 20.39Q40.00 19.78 40.13 19.01L40.13 19.01L44.90 19.88Q44.63 21.40 43.91 22.59Q43.19 23.78 42.08 24.63Q40.97 25.49 39.53 25.93Q38.08 26.38 36.37 26.38ZM51.28 14.94L51.28 14.94L51.28 26L46.15 26L46.15 0.54L51.17 0.54L51.17 11.66L50.76 11.66Q51.51 9.27 53.04 7.96Q54.57 6.65 57.00 6.65L57.00 6.65Q58.98 6.65 60.46 7.52Q61.94 8.38 62.75 10.00Q63.56 11.61 63.56 13.85L63.56 13.85L63.56 26L58.44 26L58.44 14.74Q58.44 12.96 57.52 11.95Q56.61 10.94 54.98 10.94L54.98 10.94Q53.91 10.94 53.06 11.41Q52.22 11.88 51.75 12.77Q51.28 13.66 51.28 14.94ZM74.29 26.38L74.29 26.38Q71.37 26.38 69.25 25.18Q67.13 23.98 66.00 21.78Q64.86 19.57 64.86 16.55L64.86 16.55Q64.86 13.59 65.99 11.37Q67.12 9.15 69.18 7.90Q71.25 6.65 74.04 6.65L74.04 6.65Q75.92 6.65 77.54 7.25Q79.16 7.85 80.39 9.06Q81.62 10.26 82.32 12.07Q83.01 13.88 83.01 16.34L83.01 16.34L83.01 17.78L66.96 17.78L66.96 14.57L80.50 14.57L78.10 15.42Q78.10 13.93 77.65 12.83Q77.20 11.73 76.30 11.12Q75.40 10.52 74.07 10.52L74.07 10.52Q72.76 10.52 71.82 11.13Q70.89 11.75 70.41 12.80Q69.94 13.85 69.94 15.20L69.94 15.20L69.94 17.47Q69.94 19.13 70.49 20.26Q71.05 21.39 72.05 21.95Q73.05 22.51 74.38 22.51L74.38 22.51Q75.28 22.51 76.02 22.26Q76.75 22.00 77.28 21.50Q77.80 20.99 78.07 20.26L78.07 20.26L82.72 21.13Q82.26 22.70 81.11 23.89Q79.97 25.08 78.25 25.73Q76.53 26.38 74.29 26.38ZM91.23 26.32L91.23 26.32Q89.02 26.32 87.25 25.19Q85.48 24.05 84.46 21.86Q83.43 19.66 83.43 16.48L83.43 16.48Q83.43 13.22 84.49 11.03Q85.55 8.84 87.31 7.75Q89.07 6.65 91.19 6.65L91.19 6.65Q92.82 6.65 93.89 7.20Q94.97 7.75 95.64 8.55Q96.30 9.35 96.63 10.11L96.63 10.11L96.80 10.11L96.80 0.54L101.93 0.54L101.93 26L96.88 26L96.88 22.94L96.63 22.94Q96.29 23.71 95.61 24.49Q94.94 25.27 93.86 25.79Q92.78 26.32 91.23 26.32ZM92.80 22.21L92.80 22.21Q94.10 22.21 95.02 21.49Q95.94 20.77 96.42 19.48Q96.90 18.19 96.90 16.46L96.90 16.46Q96.90 14.72 96.43 13.45Q95.96 12.17 95.04 11.47Q94.12 10.76 92.80 10.76L92.80 10.76Q91.45 10.76 90.54 11.49Q89.62 12.23 89.16 13.51Q88.70 14.79 88.70 16.46L88.70 16.46Q88.70 18.14 89.17 19.44Q89.64 20.74 90.55 21.47Q91.47 22.21 92.80 22.21ZM110.60 26.24L110.60 26.24Q108.62 26.24 107.14 25.38Q105.65 24.51 104.84 22.90Q104.03 21.28 104.03 19.04L104.03 19.04L104.03 6.89L109.15 6.89L109.15 18.16Q109.15 19.93 110.08 20.94Q111.00 21.95 112.60 21.95L112.60 21.95Q113.70 21.95 114.54 21.48Q115.37 21.01 115.84 20.11Q116.31 19.22 116.31 17.95L116.31 17.95L116.31 6.89L121.44 6.89L121.44 26L116.60 26L116.54 21.23L116.83 21.23Q116.07 23.64 114.53 24.94Q112.98 26.24 110.60 26.24ZM123.54 0.54L128.67 0.54L128.67 26L123.54 26L123.54 0.54ZM139.38 26.38L139.38 26.38Q136.46 26.38 134.34 25.18Q132.22 23.98 131.08 21.78Q129.95 19.57 129.95 16.55L129.95 16.55Q129.95 13.59 131.07 11.37Q132.20 9.15 134.27 7.90Q136.34 6.65 139.12 6.65L139.12 6.65Q141.00 6.65 142.63 7.25Q144.25 7.85 145.48 9.06Q146.71 10.26 147.40 12.07Q148.10 13.88 148.10 16.34L148.10 16.34L148.10 17.78L132.05 17.78L132.05 14.57L145.58 14.57L143.19 15.42Q143.19 13.93 142.74 12.83Q142.29 11.73 141.39 11.12Q140.49 10.52 139.16 10.52L139.16 10.52Q137.84 10.52 136.91 11.13Q135.98 11.75 135.50 12.80Q135.02 13.85 135.02 15.20L135.02 15.20L135.02 17.47Q135.02 19.13 135.58 20.26Q136.13 21.39 137.13 21.95Q138.13 22.51 139.47 22.51L139.47 22.51Q140.37 22.51 141.11 22.26Q141.84 22.00 142.36 21.50Q142.88 20.99 143.16 20.26L143.16 20.26L147.81 21.13Q147.34 22.70 146.20 23.89Q145.05 25.08 143.34 25.73Q141.62 26.38 139.38 26.38Z" fill="#111111"></path></g>
        
      </svg>